<svg data-name="Lager 3" xmlns="http://www.w3.org/2000/svg" viewBox="0 0 830.5 105.66"><path d="M62.38 34.47a3.84 3.84 0 00.74-.93h-.74zM56.49 33.54H40.67l-5.54 1.55-1.56 5.54v22.43a4 4 0 001.66-1.87l7.48-16.55a4.06 4.06 0 012-2l11.77-5.3zM62.39 29.52h.73a4 4 0 00-.73-.93zM56.49 25.7v3.82H40.67l-5.54-1.55-1.56-5.54V0a4 4 0 011.66 1.84l7.48 16.54a4 4 0 002 2zM29.55 0a3.88 3.88 0 00-1.65 1.84l-7.48 16.54a4 4 0 01-2 2L1.84 27.87A4 4 0 000 29.52h22.46L28 27.97l1.55-5.54zM1.84 35.19A4 4 0 010 33.54h22.46L28 35.09l1.55 5.54v22.43a3.92 3.92 0 01-1.65-1.87l-7.48-16.55a4.1 4.1 0 00-2-2z"/><path d="M58.31 104.31h34.84c17.15 0 28.47-7.95 28.47-21.38v-.23c0-10.75-7.51-16.12-16.81-18.92 6.16-2.69 12.44-7.95 12.44-18.14v-.23a17.4 17.4 0 00-5-12.54c-4.48-4.36-11.54-6.94-20.51-6.94H58.31zm50-57.44c0 9.18-7.4 14-18 14H67.03v-27h23.88c11.21 0 17.37 5 17.37 12.77zm4.34 35.32v.23c0 8.73-7.4 14-19.28 14H67.03V68.71H91.8c13.68 0 20.85 4.92 20.85 13.48zM150.39 104.31h53v-8.12h-44.15V25.93h-8.85zM224.31 104.31h9l9.31-20.71h42.69l9.19 20.71h9.53l-35.72-78.94h-8.29zm21.86-28.77l17.93-39.87 17.82 39.87zM362.02 105.66c14.23 0 23.2-5.49 31.38-13.78l-5.83-5.69C380.06 93.36 373 97.5 362.24 97.5c-17.26 0-30.37-14.22-30.37-32.36v-.22c0-18 13-32.14 30.37-32.14 10.65 0 18.05 4.48 24.66 10.75l6.05-6.49c-7.84-7.4-16.36-12.43-30.6-12.43-23.09 0-39.67 18.36-39.67 40.53v.23c0 22.48 16.7 40.29 39.34 40.29zM420.11 104.31h8.85V83.26l16.7-16.91 30.15 38h11.1l-35.08-44.16 33.62-34.26h-11.43l-45.06 46.81V25.93h-8.85zM537.68 105.43c15.58 0 26.79-8.73 26.79-22.17v-.22c0-12-8.07-18.37-25.56-22.17-17.26-3.7-21.29-7.84-21.29-15.23v-.23c0-7.05 6.5-12.65 16.7-12.65 8.07 0 15.35 2.58 22.64 8.51l5.15-6.83c-8-6.38-16.14-9.63-27.57-9.63-14.91 0-25.78 9.07-25.78 21.39v.22c0 12.88 8.3 18.7 26.34 22.62 16.48 3.47 20.4 7.62 20.4 14.89v.26c0 7.72-7 13.32-17.49 13.32-10.87 0-18.71-3.69-26.9-11.08l-5.49 6.49c9.42 8.37 19.62 12.51 32.06 12.51zM612.77 104.31h9V34.1h26.34v-8.17h-61.68v8.17h26.34zM659.13 104.31h9.08l9.3-20.71h42.7l9.19 20.71h9.53l-35.75-78.94h-8.3zm21.86-28.77l17.93-39.87 17.82 39.87zM765.61 104.31h8.86V73.86h22.41l22.75 30.45h10.88l-24.1-32c12.33-2.24 21.29-9.86 21.29-22.85v-.27a21.64 21.64 0 00-6-15.45c-4.93-4.93-12.66-7.84-22.3-7.84h-33.79zm8.86-38.4V34.1h24.21c12.66 0 20.06 5.83 20.06 15.46v.22c0 10.08-8.41 16.13-20.18 16.13z"/></svg>